<?xml version="1.0" encoding="UTF-8" standalone="no"?>
<svg
   xmlns:dc="http://purl.org/dc/elements/1.1/"
   xmlns:cc="http://creativecommons.org/ns#"
   xmlns:rdf="http://www.w3.org/1999/02/22-rdf-syntax-ns#"
   xmlns:svg="http://www.w3.org/2000/svg"
   xmlns="http://www.w3.org/2000/svg"
   xmlns:xlink="http://www.w3.org/1999/xlink"
   xmlns:sodipodi="http://sodipodi.sourceforge.net/DTD/sodipodi-0.dtd"
   xmlns:inkscape="http://www.inkscape.org/namespaces/inkscape"
   inkscape:version="1.0 (4035a4fb49, 2020-05-01)"
   height="260.50146"
   width="1221.104"
   sodipodi:docname="Mediacom.svg"
   id="svg49"
   version="1.1"
   viewBox="0 0 300.00083 64">
  <metadata
     id="metadata53">
    <rdf:RDF>
      <cc:Work
         rdf:about="">
        <dc:format>image/svg+xml</dc:format>
        <dc:type
           rdf:resource="http://purl.org/dc/dcmitype/StillImage" />
        <dc:title></dc:title>
      </cc:Work>
    </rdf:RDF>
  </metadata>
  <sodipodi:namedview
     inkscape:current-layer="svg49"
     inkscape:window-maximized="1"
     inkscape:window-y="-8"
     inkscape:window-x="-8"
     inkscape:cy="46.120683"
     inkscape:cx="730.7007"
     inkscape:zoom="1"
     fit-margin-bottom="0"
     fit-margin-right="0"
     fit-margin-left="0"
     fit-margin-top="0"
     showgrid="false"
     id="namedview51"
     inkscape:window-height="705"
     inkscape:window-width="1366"
     inkscape:pageshadow="2"
     inkscape:pageopacity="0"
     guidetolerance="10"
     gridtolerance="10"
     objecttolerance="10"
     borderopacity="1"
     bordercolor="#666666"
     pagecolor="#ffffff" />
  <defs
     id="defs21">
    <linearGradient
       gradientUnits="userSpaceOnUse"
       gradientTransform="matrix(62.6,0,0,60.6,46564.19,-8066.93)"
       y2="134.09"
       x2="-743.35999"
       y1="133.66"
       x1="-743.35999"
       id="a">
      <stop
         id="stop2"
         stop-color="#0067a8"
         offset="0" />
      <stop
         id="stop4"
         stop-color="#34387b"
         offset="1" />
    </linearGradient>
    <linearGradient
       xlink:href="#a"
       gradientTransform="matrix(38.46,0,0,46.83,28375.69,-6300.29)"
       y2="135.82001"
       x2="-736.21997"
       y1="135.25999"
       x1="-736.21997"
       id="b" />
    <linearGradient
       xlink:href="#a"
       gradientTransform="matrix(39.94,0,0,65.66,29538.61,-8713.76)"
       y2="133.62"
       x2="-737.21002"
       y1="133.22"
       x1="-737.21002"
       id="c" />
    <linearGradient
       xlink:href="#a"
       gradientTransform="matrix(11.68,0,0,45.7,8233.52,-6156.22)"
       y2="136.03"
       x2="-694.22998"
       y1="135.46001"
       x1="-694.22998"
       id="d" />
    <linearGradient
       xlink:href="#a"
       gradientTransform="matrix(39.5,0,0,47.87,29277.91,-6433.32)"
       y2="135.63"
       x2="-737.45001"
       y1="135.08"
       x1="-737.45001"
       id="e" />
    <linearGradient
       xlink:href="#a"
       gradientTransform="matrix(34.44,0,0,47,25497.29,-6322.73)"
       y2="135.78999"
       x2="-735.13"
       y1="135.24001"
       x1="-735.13"
       id="f" />
    <linearGradient
       xlink:href="#a"
       gradientTransform="matrix(40.37,0,0,46.48,30016.01,-6256.02)"
       y2="135.88"
       x2="-738.34003"
       y1="135.32001"
       x1="-738.34003"
       id="g" />
    <linearGradient
       xlink:href="#a"
       gradientTransform="matrix(58.6,0,0,45.43,43836.02,-6122.9)"
       y2="136.08"
       x2="-743.84998"
       y1="135.5"
       x1="-743.84998"
       id="h" />
    <linearGradient
       gradientUnits="userSpaceOnUse"
       gradientTransform="matrix(225.8,0,0,84.08,170089.17,-11075.29)"
       y2="132.64"
       x2="-752.06"
       y1="131.42999"
       x1="-752.44"
       data-name="New Gradient Swatch copy"
       id="i">
      <stop
         id="stop14"
         stop-color="#de392e"
         offset="0" />
      <stop
         id="stop16"
         stop-color="#de392e"
         offset=".28" />
      <stop
         id="stop18"
         stop-color="#fed504"
         offset=".66" />
    </linearGradient>
    <linearGradient
       y2="134.09"
       x2="-743.35999"
       y1="133.66"
       x1="-743.35999"
       gradientTransform="matrix(62.6,0,0,60.6,46564.19,-8066.93)"
       gradientUnits="userSpaceOnUse"
       id="linearGradient55"
       xlink:href="#a"
       inkscape:collect="always" />
  </defs>
  <g
     id="g79">
    <path
       style="fill:url(#linearGradient55)"
       id="path23"
       fill="url(#a)"
       d="m 31,17.16 -6.06,22.41 c -0.71,2.66 -1.23,5 -1.62,7.34 A 70.38,70.38 0 0 0 21.76,39.77 L 15.85,17.17 H 4.22 L 0,62.3 h 9 l 1.56,-23.58 c 0.2,-2.79 0.33,-5.46 0.33,-8.12 0.45,2.6 1.23,5.78 1.82,8 l 6.45,23.7 h 7.73 L 34,37.62 c 0.78,-2.73 1.17,-4.35 1.69,-7 0,2.4 0.13,4.68 0.32,7.53 l 1.69,24.1 h 8.9 l -4,-45.14 z" />
    <path
       style="fill:url(#b)"
       id="path25"
       fill="url(#b)"
       d="M 53.26,32.82 C 50.34,36.06 49.1,40 49.1,46 c 0,10.46 6.17,17.21 15.72,17.21 A 19.08,19.08 0 0 0 77.35,58.6 L 74,53.4 a 13,13 0 0 1 -8.44,3.31 c -4.48,0 -7,-2.92 -7,-8.05 V 48.4 h 19.19 v -2 c 0,-6.95 -1.36,-11.43 -4.42,-14.55 -2.14,-2.21 -5.78,-3.51 -9.61,-3.51 a 13.07,13.07 0 0 0 -10.46,4.48 z m 5.39,9.09 c 0,-4.61 1.88,-7.21 5.2,-7.21 a 4.21,4.21 0 0 1 3.83,1.95 c 0.78,1.23 1,2.53 1,5 V 42 H 58.65 v -0.13 z" />
    <path
       style="fill:url(#c)"
       id="path27"
       fill="url(#c)"
       d="m 101.31,25.67 a 40.6,40.6 0 0 0 0.26,4.94 9,9 0 0 0 -5.91,-1.88 c -8.44,0 -14.22,7.14 -14.22,17.54 0,10.33 5.33,16.89 13.77,16.89 a 11.15,11.15 0 0 0 7.66,-2.79 5.93,5.93 0 0 0 0.52,1.95 h 7.79 c -0.58,-1.3 -1.23,-4 -1.23,-12.15 V 15.6 l -8.64,-1.36 z m -10.2,20.66 c 0,-7.4 1.69,-10.65 5.59,-10.65 a 7.25,7.25 0 0 1 4.74,2.15 v 15.83 a 6.22,6.22 0 0 1 -4.29,2.14 c -4.55,0 -6,-2.34 -6,-9.48 z" />
    <path
       style="fill:url(#d)"
       id="path29"
       fill="url(#d)"
       d="M 118,29.63 V 62.3 h 8.7 v -34 z" />
    <path
       id="path31"
       fill="#de392e"
       d="m 128.93,16.93 -4.7,-0.68 -2.1,-4.25 -2.13,4.25 -4.7,0.68 3.4,3.32 -0.81,4.68 4.21,-2.21 4.21,2.21 -0.8,-4.68 3.4,-3.32 z" />
    <path
       style="fill:url(#e)"
       id="path33"
       fill="url(#e)"
       d="M 138.94,30.28 A 32.1,32.1 0 0 0 133.55,33 l 3.7,6.23 c 3.57,-2.4 6.82,-3.77 9.61,-3.77 3.18,0 3.9,1.24 3.9,4.94 v 1.36 c -0.72,-0.06 -1.3,-0.06 -1.95,-0.06 -10.59,0 -16,3.64 -16,11.43 0,6.62 4,10.39 11.43,10.39 a 11.5,11.5 0 0 0 6.76,-1.8 16.05,16.05 0 0 0 2,-1.72 9.3,9.3 0 0 0 4.67,4 l 4.61,-5.33 c -2.53,-1.88 -3.12,-3.25 -3.12,-6.82 v -0.58 l 0.19,-11.17 c 0.06,-3.57 -0.13,-4.61 -0.58,-6 -1.3,-3.7 -5.13,-5.78 -10.72,-5.78 a 22.54,22.54 0 0 0 -9.09,1.95 m 3.18,22.54 c 0,-4 2.08,-5.07 8.12,-5.07 h 0.39 l -0.13,7.15 A 6.3,6.3 0 0 1 146,57.17 c -2.21,0 -3.83,-1.75 -3.83,-4.35" />
    <path
       style="fill:url(#f)"
       id="path35"
       fill="url(#f)"
       d="m 171.52,30.54 c -3.9,2.66 -6.82,7.73 -6.82,15.39 0,10.78 5.32,17.15 14.48,17.15 a 15.54,15.54 0 0 0 8.12,-2.08 13.73,13.73 0 0 0 3.05,-2.47 l -4,-5.26 -0.52,0.46 c -2.14,1.88 -4,2.73 -6,2.73 a 5,5 0 0 1 -3.9,-1.88 c -1.1,-1.43 -1.69,-4 -1.69,-8.38 C 174.31,38.4 176.06,35 180,35 a 8.38,8.38 0 0 1 5.26,2.6 l 4.22,-5.72 a 14.61,14.61 0 0 0 -3.25,-2.34 14.17,14.17 0 0 0 -6.43,-1.5 15.75,15.75 0 0 0 -8.25,2.47" />
    <path
       style="fill:url(#g)"
       id="path37"
       fill="url(#g)"
       d="m 191.43,45.81 c 0,10.46 5.91,17.21 14.94,17.21 5.13,0 8.44,-1.75 11,-4.61 2.86,-3.25 4.16,-7.14 4.16,-12.86 0,-5.39 -1.17,-9 -3.83,-12.15 a 13.93,13.93 0 0 0 -11.3,-5 c -9,0 -14.94,7 -14.94,17.41 M 202.21,54 c -0.72,-1.69 -1.1,-4.54 -1.1,-8.38 a 23.7,23.7 0 0 1 0.91,-7.4 4.7,4.7 0 0 1 4.48,-3.38 4.66,4.66 0 0 1 3.77,1.75 c 1.17,1.49 1.75,4.42 1.75,8.9 0,7.86 -1.62,11.24 -5.39,11.24 A 4.81,4.81 0 0 1 202.21,54" />
    <path
       style="fill:url(#h)"
       id="path39"
       fill="url(#h)"
       d="m 250.57,32.82 a 10.93,10.93 0 0 0 -1.3,-1.63 9,9 0 0 0 -6.75,-2.73 11.46,11.46 0 0 0 -8.12,3.38 8.49,8.49 0 0 0 -1.17,-3.38 l -7.86,2.14 c 0.91,1.62 1.23,3.7 1.23,8.51 V 62.3 h 8.51 V 38.08 a 9.22,9.22 0 0 1 5.72,-2.53 c 2.4,0 3,1 3,5.13 V 62.3 h 8.25 V 38.4 c 1.88,-1.69 4.16,-2.79 5.78,-2.79 2.27,0 2.73,0.78 2.73,4.74 v 22 H 269 V 38.66 c 0,-4.55 -0.59,-6.49 -2.47,-8.12 A 10.29,10.29 0 0 0 260,28.46 c -3.64,0 -6.37,1.23 -9.42,4.35" />
    <path
       style="fill:url(#i)"
       id="path43"
       fill="url(#i)"
       d="m 241.19,0 c -23.17,0.12 -63,4.16 -108.61,16.07 l -0.76,0.73 C 359.4,-28.86 279.65,55.9 273.43,62.63 291.24,54.52 336.36,0 242.47,0 h -1.28" />
  </g>
</svg>
